<?xml version="1.0" encoding="UTF-8"?>
<svg version="1.1" viewBox="0 0 1600 1600" width="1280" height="1280" xmlns="http://www.w3.org/2000/svg">
<path transform="translate(0)" d="m0 0h1600v1600h-1600v-1600z" fill="#FDFDFD"/>
<path transform="translate(248 645)" d="m0 0c0.728 0.0049 1.46 0.0098 2.21 0.0148 0.775-0.00268 1.55-0.00536 2.35-0.00812 2.63-0.00661 5.26 0.00119 7.89 0.00878 1.9-0.00178 3.8-0.00444 5.7-0.0079 5.26-0.00701 10.5-0.00143 15.8 0.00606 5.71 0.00594 11.4 3.49e-4 17.1-0.00382 10-0.0057 20-0.00391 30.1 0.00269 10.8 0.00707 21.5 0.00991 32.3 0.00736 0.678-1.58e-4 1.36-3.16e-4 2.06-4.78e-4 3.46-8.24e-4 6.92-0.00172 10.4-0.00263 25.1-0.00648 50.1-0.00311 75.2 0.00559 24.8 0.00861 49.6 0.0135 74.5 0.0133 1.56-7.92e-6 3.11-1.56e-5 4.67-2.32e-5 6.26-3.74e-5 12.5-1.04e-4 18.8-2.06e-4 17.5-2.78e-4 35 1.11e-4 52.5 9.89e-4 0.797 3.97e-5 1.59 7.93e-5 2.41 1.2e-4 25.4 0.00131 50.8 0.00548 76.2 0.0117 0.824 2.03e-4 1.65 4.06e-4 2.5 6.15e-4 13.4 0.00331 26.8 0.0068 40.1 0.0103 53.1 0.0139 106 0.0205 159 0.0198 1.68-2.04e-5 3.36-4.06e-5 5.03-6.06e-5 3.35-4.02e-5 6.7-8.1e-5 10.1-1.22e-4 7.51-9.14e-5 15-1.76e-4 22.5-2.47e-4 1.66-1.58e-5 3.33-3.22e-5 4.99-4.93e-5 44.4-4.45e-4 88.8 0.00402 133 0.0104 0.775 1.1e-4 1.55 2.2e-4 2.35 3.34e-4 14.1 0.00201 14.1 0.00201 21 0.00302 17.1 0.0025 34.1 0.00444 51.2 0.00481 0.77 1.75e-5 1.54 3.51e-5 2.33 5.31e-5 3.1 6.92e-5 6.21 1.34e-4 9.31 1.97e-4 28.8 5.85e-4 57.5 0.00434 86.3 0.0145 2.75 9.58e-4 5.51 0.0019 8.26 0.00283 1.01 3.46e-4 1.01 3.46e-4 2.05 6.99e-4 11.4 0.00379 22.8 0.00364 34.1 0.00247 9.88-7.31e-4 19.8 0.00214 29.6 0.00804 5.64 0.00327 11.3 0.00491 16.9 0.00224 5.12-0.00239 10.2-2.78e-4 15.4 0.00562 1.85 0.00131 3.7 9.08e-4 5.56-0.00132 2.49-0.00276 4.99 5.17e-4 7.48 0.00544 0.73-0.00227 1.46-0.00455 2.21-0.00689 4.92 0.0192 4.92 0.0192 6.04 1.13 0.0971 1.63 0.124 3.27 0.123 4.9 0.00199 1.07 0.00398 2.14 0.00603 3.24-0.00291 1.19-0.00583 2.38-0.00883 3.6 8.54e-4 1.25 0.00171 2.5 0.00259 3.79 0.00225 3.49-0.00178 6.97-0.00678 10.5-0.0043 3.75-0.00286 7.51-0.0021 11.3 5.25e-4 6.51-0.00262 13-0.00824 19.5-0.00811 9.41-0.0107 18.8-0.012 28.2-0.00219 15.3-0.00885 30.5-0.0183 45.8-0.00917 14.8-0.0163 29.7-0.0205 44.5-2.63e-4 0.914-5.25e-4 1.83-7.96e-4 2.77-0.0013 4.58-0.00257 9.17-0.00381 13.8-0.0104 38.1-0.028 76.1-0.0503 114-34.1 0.0055-68.2 0.0108-102 0.0159-1 1.5e-4 -1 1.5e-4 -2.02 3.02e-4 -71.4 0.0107-143 0.0199-214 0.0262-1.59 1.39e-4 -3.17 2.79e-4 -4.76 4.18e-4 -33.3 0.00292-66.6 0.00564-99.9 0.00812-16.7 0.00125-33.4 0.00253-50.2 0.00385-2.52 1.99e-4 -5.05 3.97e-4 -7.57 5.95e-4 -38.9 0.00306-77.7 0.00697-117 0.0133-1.25 2.05e-4 -1.25 2.05e-4 -2.53 4.15e-4 -13.5 0.00221-27 0.0045-40.4 0.00679-38.8 0.0066-77.6 0.0127-116 0.0153-1.2 8.03e-5 -1.2 8.03e-5 -2.42 1.62e-4 -17.5 0.00117-35 0.00206-52.5 0.0027-7.04 2.62e-4 -14.1 5.62e-4 -21.1 8.76e-4 -1.16 5.01e-5 -1.16 5.01e-5 -2.34 1.01e-4 -24.9 0.0011-49.7 0.00537-74.6 0.0113-25 0.00596-50.1 0.00882-75.1 0.00734-3.45-2.03e-4 -6.91-3.7e-4 -10.4-5.16e-4 -0.677-2.99e-5 -1.35-5.98e-5 -2.05-9.05e-5 -11.4-4.05e-4 -22.8 0.00317-34.2 0.00778-9.9 0.00373-19.8 0.00388-29.7 0.00103-5.65-0.00152-11.3-0.0014-17 0.00305-5.13 0.00401-10.3 0.00352-15.4-7.43e-4 -1.86-7.21e-4 -3.71 2.77e-4 -5.57 0.0031-2.5 0.00356-5 0.00108-7.5-0.00304-0.732 0.00251-1.46 0.00502-2.22 0.0076-4.94-0.0176-4.94-0.0176-6.05-1.13-0.103-1.52-0.136-3.05-0.141-4.58-0.00609-0.995-0.0122-1.99-0.0185-3.02-0.00166-1.11-0.00332-2.21-0.00503-3.35-0.00564-1.17-0.0113-2.33-0.0171-3.53-0.0147-3.25-0.0249-6.5-0.0332-9.75-0.01-3.5-0.0258-7-0.0408-10.5-0.0285-6.87-0.0516-13.7-0.0728-20.6-0.0173-5.59-0.0366-11.2-0.0572-16.8-0.00439-1.19-0.00439-1.19-0.00887-2.41-0.00596-1.61-0.0119-3.23-0.0179-4.84-0.0558-15.2-0.105-30.3-0.153-45.5-0.0409-13-0.0872-26-0.137-39-0.0583-15.1-0.113-30.2-0.163-45.3-0.0053-1.61-0.0106-3.23-0.0159-4.84-0.00261-0.794-0.00522-1.59-0.00791-2.4-0.0186-5.57-0.0396-11.1-0.0616-16.7-0.0268-6.81-0.0498-13.6-0.0681-20.4-0.0094-3.47-0.0204-6.93-0.0361-10.4-0.138-32.4-0.138-32.4 1.06-40.2 2.46-2.46 3.82-2.24 7.17-2.26z" fill="#FDFDFD"/>
<path transform="translate(286 673)" d="m0 0c0.882 2.35e-4 1.76 4.7e-4 2.67 7.12e-4 2.98 0.00204 5.95 0.0113 8.93 0.0205 2.15 0.00298 4.3 0.00551 6.44 0.00765 5.92 0.00718 11.8 0.0207 17.8 0.0352 6.38 0.0146 12.8 0.0233 19.1 0.0328 11.8 0.0184 23.5 0.0415 35.3 0.0669 10.9 0.0235 21.7 0.0451 32.6 0.0648 0.72 0.00131 1.44 0.00262 2.18 0.00397 2.92 0.00532 5.85 0.0106 8.77 0.0159 27.4 0.0497 54.9 0.105 82.3 0.164 24.4 0.0518 48.8 0.0983 73.2 0.141 27.4 0.0474 54.8 0.098 82.2 0.154 2.92 0.00594 5.84 0.0119 8.75 0.0178 1.08 0.00219 1.08 0.00219 2.18 0.00443 10.9 0.0221 21.7 0.0417 32.6 0.0601 12.4 0.0209 24.7 0.0455 37.1 0.0746 6.31 0.0148 12.6 0.0279 18.9 0.0368 5.77 0.00815 11.5 0.0208 17.3 0.0373 2.1 0.00516 4.19 0.0086 6.29 0.0102 2.83 0.00245 5.66 0.0109 8.49 0.0211 0.83-7.37e-4 1.66-0.00147 2.52-0.00223 5.6 0.0295 5.6 0.0295 6.72 1.14 0.1 2.95 0.134 5.87 0.127 8.81 0.00156 0.936 0.00312 1.87 0.00473 2.84 0.00401 3.16 8.18e-4 6.33-0.00232 9.49 0.00135 2.26 0.00313 4.52 0.00531 6.77 0.00458 6.16 0.00278 12.3-3.79e-4 18.5-0.00253 6.45-1.85e-4 12.9 0.00139 19.3 0.00194 11.5-0.00118 23.1-0.00626 34.6-0.00445 10.4-0.00371 20.9 9.19e-4 31.3 0.00537 12.1 0.00733 24.2 0.00439 36.4-0.00155 6.41-0.00178 12.8 0.00154 19.2 0.00291 6.05 8.45e-4 12.1-0.00489 18.1-0.00131 2.21-9.61e-4 4.42 0.00126 6.63 0.00278 3.04-7.47e-4 6.08-0.00568 9.12 0.00223 0.852 0.00446 1.7 0.00676 2.58-0.0262 8.44-0.593 16.8-1.13 25.3-50 0.0171-100 0.033-150 0.0423-1.11 2.07e-4 -1.11 2.07e-4 -2.24 4.18e-4 -16.1 0.00299-32.2 0.00576-48.2 0.0083-7.88 0.00125-15.8 0.00254-23.7 0.00387-0.785 1.31e-4 -1.57 2.62e-4 -2.38 3.96e-4 -25.5 0.00427-50.9 0.0118-76.4 0.021-26.1 0.00942-52.3 0.0156-78.4 0.0176-3.69 2.88e-4 -7.38 6.14e-4 -11.1 9.62e-4 -1.09 1.01e-4 -1.09 1.01e-4 -2.2 2.04e-4 -11.7 0.00118-23.4 0.00583-35.1 0.0118-11.8 0.00587-23.5 0.00806-35.3 0.00667-6.38-6.44e-4 -12.8 3.78e-4 -19.1 0.0057-5.83 0.00483-11.7 0.00513-17.5 0.00169-2.12-4.26e-4 -4.24 8.72e-4 -6.36 0.00398-2.86 0.00396-5.72 0.00188-8.58-0.00184-1.26 0.00394-1.26 0.00394-2.54 0.00796-5.66-0.0169-5.66-0.0169-6.78-1.13-0.103-3.17-0.139-6.31-0.134-9.48-0.00227-1.01-0.00453-2.02-0.00687-3.05-0.00637-3.41-0.00551-6.81-0.00469-10.2-0.00299-2.43-0.00639-4.86-0.0102-7.29-0.00794-5.93-0.0111-11.9-0.0116-17.8-4.74e-4 -4.82-0.00253-9.64-0.0057-14.5-0.00881-13.7-0.0134-27.3-0.0127-41 4e-5 -0.737 7.99e-5 -1.47 1.21e-4 -2.23 6.13e-5 -1.11 6.13e-5 -1.11 1.24e-4 -2.24 4.07e-4 -12-0.00917-23.9-0.0233-35.9-0.0143-12.3-0.0213-24.5-0.0204-36.8 3.33e-4 -6.89-0.00244-13.8-0.0132-20.7-0.01-6.48-0.00979-13-0.00248-19.4 0.00105-2.38-0.00135-4.77-0.00736-7.15-0.00765-3.24-0.00312-6.48 0.00463-9.73-0.00514-0.955-0.0103-1.91-0.0156-2.89 0.0046-0.864 0.0092-1.73 0.0139-2.62-2.17e-4 -0.749-4.35e-4 -1.5-6.59e-4 -2.27 0.25-1.83 0.25-1.83 2.25-3.83 4.13-1.35 8.31-1.13 12.6-1.11z"/>
<path transform="translate(248 645)" d="m0 0c0.728 0.0049 1.46 0.0098 2.21 0.0148 0.775-0.00268 1.55-0.00536 2.35-0.00812 2.63-0.00661 5.26 0.00119 7.89 0.00878 1.9-0.00178 3.8-0.00444 5.7-0.0079 5.26-0.00701 10.5-0.00143 15.8 0.00606 5.71 0.00594 11.4 3.49e-4 17.1-0.00382 10-0.0057 20-0.00391 30.1 0.00269 10.8 0.00707 21.5 0.00991 32.3 0.00736 0.678-1.58e-4 1.36-3.16e-4 2.06-4.78e-4 3.46-8.24e-4 6.92-0.00172 10.4-0.00263 25.1-0.00648 50.1-0.00311 75.2 0.00559 24.8 0.00861 49.6 0.0135 74.5 0.0133 1.56-7.92e-6 3.11-1.56e-5 4.67-2.32e-5 6.26-3.74e-5 12.5-1.04e-4 18.8-2.06e-4 17.5-2.78e-4 35 1.11e-4 52.5 9.89e-4 0.797 3.97e-5 1.59 7.93e-5 2.41 1.2e-4 25.4 0.00131 50.8 0.00548 76.2 0.0117 0.824 2.03e-4 1.65 4.06e-4 2.5 6.15e-4 13.4 0.00331 26.8 0.0068 40.1 0.0103 53.1 0.0139 106 0.0205 159 0.0198 1.68-2.04e-5 3.36-4.06e-5 5.03-6.06e-5 3.35-4.02e-5 6.7-8.1e-5 10.1-1.22e-4 7.51-9.14e-5 15-1.76e-4 22.5-2.47e-4 1.66-1.58e-5 3.33-3.22e-5 4.99-4.93e-5 44.4-4.45e-4 88.8 0.00402 133 0.0104 0.775 1.1e-4 1.55 2.2e-4 2.35 3.34e-4 14.1 0.00201 14.1 0.00201 21 0.00302 17.1 0.0025 34.1 0.00444 51.2 0.00481 0.77 1.75e-5 1.54 3.51e-5 2.33 5.31e-5 3.1 6.92e-5 6.21 1.34e-4 9.31 1.97e-4 28.8 5.85e-4 57.5 0.00434 86.3 0.0145 2.75 9.58e-4 5.51 0.0019 8.26 0.00283 1.01 3.46e-4 1.01 3.46e-4 2.05 6.99e-4 11.4 0.00379 22.8 0.00364 34.1 0.00247 9.88-7.31e-4 19.8 0.00214 29.6 0.00804 5.64 0.00327 11.3 0.00491 16.9 0.00224 5.12-0.00239 10.2-2.78e-4 15.4 0.00562 1.85 0.00131 3.7 9.08e-4 5.56-0.00132 2.49-0.00276 4.99 5.17e-4 7.48 0.00544 0.73-0.00227 1.46-0.00455 2.21-0.00689 4.92 0.0192 4.92 0.0192 6.04 1.13 0.0971 1.63 0.124 3.27 0.123 4.9 0.00199 1.07 0.00398 2.14 0.00603 3.24-0.00291 1.19-0.00583 2.38-0.00883 3.6 8.54e-4 1.25 0.00171 2.5 0.00259 3.79 0.00225 3.49-0.00178 6.97-0.00678 10.5-0.0043 3.75-0.00286 7.51-0.0021 11.3 5.25e-4 6.51-0.00262 13-0.00824 19.5-0.00811 9.41-0.0107 18.8-0.012 28.2-0.00219 15.3-0.00885 30.5-0.0183 45.8-0.00917 14.8-0.0163 29.7-0.0205 44.5-2.63e-4 0.914-5.25e-4 1.83-7.96e-4 2.77-0.0013 4.58-0.00257 9.17-0.00381 13.8-0.0104 38.1-0.028 76.1-0.0503 114-34.1 0.0055-68.2 0.0108-102 0.0159-1 1.5e-4 -1 1.5e-4 -2.02 3.02e-4 -71.4 0.0107-143 0.0199-214 0.0262-1.59 1.39e-4 -3.17 2.79e-4 -4.76 4.18e-4 -33.3 0.00292-66.6 0.00564-99.9 0.00812-16.7 0.00125-33.4 0.00253-50.2 0.00385-2.52 1.99e-4 -5.05 3.97e-4 -7.57 5.95e-4 -38.9 0.00306-77.7 0.00697-117 0.0133-1.25 2.05e-4 -1.25 2.05e-4 -2.53 4.15e-4 -13.5 0.00221-27 0.0045-40.4 0.00679-38.8 0.0066-77.6 0.0127-116 0.0153-1.2 8.03e-5 -1.2 8.03e-5 -2.42 1.62e-4 -17.5 0.00117-35 0.00206-52.5 0.0027-7.04 2.62e-4 -14.1 5.62e-4 -21.1 8.76e-4 -1.16 5.01e-5 -1.16 5.01e-5 -2.34 1.01e-4 -24.9 0.0011-49.7 0.00537-74.6 0.0113-25 0.00596-50.1 0.00882-75.1 0.00734-3.45-2.03e-4 -6.91-3.7e-4 -10.4-5.16e-4 -0.677-2.99e-5 -1.35-5.98e-5 -2.05-9.05e-5 -11.4-4.05e-4 -22.8 0.00317-34.2 0.00778-9.9 0.00373-19.8 0.00388-29.7 0.00103-5.65-0.00152-11.3-0.0014-17 0.00305-5.13 0.00401-10.3 0.00352-15.4-7.43e-4 -1.86-7.21e-4 -3.71 2.77e-4 -5.57 0.0031-2.5 0.00356-5 0.00108-7.5-0.00304-0.732 0.00251-1.46 0.00502-2.22 0.0076-4.94-0.0176-4.94-0.0176-6.05-1.13-0.103-1.52-0.136-3.05-0.141-4.58-0.00609-0.995-0.0122-1.99-0.0185-3.02-0.00166-1.11-0.00332-2.21-0.00503-3.35-0.00564-1.17-0.0113-2.33-0.0171-3.53-0.0147-3.25-0.0249-6.5-0.0332-9.75-0.01-3.5-0.0258-7-0.0408-10.5-0.0285-6.87-0.0516-13.7-0.0728-20.6-0.0173-5.59-0.0366-11.2-0.0572-16.8-0.00439-1.19-0.00439-1.19-0.00887-2.41-0.00596-1.61-0.0119-3.23-0.0179-4.84-0.0558-15.2-0.105-30.3-0.153-45.5-0.0409-13-0.0872-26-0.137-39-0.0583-15.1-0.113-30.2-0.163-45.3-0.0053-1.61-0.0106-3.23-0.0159-4.84-0.00261-0.794-0.00522-1.59-0.00791-2.4-0.0186-5.57-0.0396-11.1-0.0616-16.7-0.0268-6.81-0.0498-13.6-0.0681-20.4-0.0094-3.47-0.0204-6.93-0.0361-10.4-0.138-32.4-0.138-32.4 1.06-40.2 2.46-2.46 3.82-2.24 7.17-2.26zm24.6 9.59c-1.93 0.0371-3.85 0.0711-5.78 0.102-2.65 0.0439-5.3 0.101-7.96 0.161-1.19 0.0167-1.19 0.0167-2.4 0.0338-4.3-0.032-4.3-0.032-7.67 2.38-0.302 2.16-0.302 2.16-0.249 4.69-0.0046 0.996-0.0092 1.99-0.0139 3.02 0.00514 1.1 0.0103 2.2 0.0156 3.34-0.00241 1.16-0.00483 2.33-0.00732 3.53-0.00468 3.24-3.29e-4 6.49 0.00776 9.73 0.00656 3.49 0.00163 6.99-0.00188 10.5-0.00505 6.85 6.09e-4 13.7 0.00985 20.5 0.0104 7.97 0.0103 15.9 0.00983 23.9-5.01e-4 14.2 0.00867 28.4 0.0232 42.6 0.0141 13.8 0.0212 27.6 0.0205 41.4-4e-5 0.85-7.99e-5 1.7-1.21e-4 2.58-4.04e-5 0.849-8.07e-5 1.7-1.22e-4 2.57-6.89e-4 15.7 0.0052 31.4 0.0142 47.1 0.00302 5.56 0.00408 11.1 0.00453 16.7 6.81e-4 6.77 0.00512 13.5 0.0143 20.3 0.00463 3.46 0.00766 6.91 0.00641 10.4-4.87e-4 3.74 0.00513 7.48 0.0124 11.2-0.00155 1.1-0.0031 2.21-0.00469 3.35 0.00322 0.994 0.00645 1.99 0.00977 3.01 7.04e-4 0.864 0.00141 1.73 0.00213 2.62-0.0885 1.95-0.0885 1.95 1.13 2.95 2.4 0.0992 4.76 0.133 7.16 0.124 0.763 0.00128 1.53 0.00256 2.31 0.00387 2.59 0.0031 5.19-0.00102 7.78-0.00502 1.87 7.39e-4 3.74 0.00192 5.62 0.0035 5.19 0.00309 10.4-1.24e-4 15.6-0.00428 5.63-0.00342 11.3-0.00107 16.9 5.77e-4 9.89 0.00208 19.8 4.19e-4 29.7-0.00364 10.6-0.00434 21.2-0.00657 31.8-0.0061 1 4.3e-5 1 4.3e-5 2.03 8.69e-5 3.41 1.56e-4 6.82 3.48e-4 10.2 5.53e-4 24.7 0.00141 49.4-0.00203 74.2-0.00802 24.5-0.00592 49-0.00977 73.5-0.0109 0.76-3.44e-5 1.52-6.88e-5 2.3-1.04e-4 6.94-3.13e-4 13.9-6.01e-4 20.8-8.58e-4 17.3-6.39e-4 34.5-0.0016 51.8-0.00278 0.786-5.33e-5 1.57-1.07e-4 2.38-1.62e-4 38.2-0.00262 76.5-0.00893 115-0.0155 13.3-0.00229 26.6-0.00457 39.8-0.00677 1.24-2.05e-4 1.24-2.05e-4 2.5-4.15e-4 38.3-0.00634 76.5-0.0101 115-0.0131 2.48-1.98e-4 4.97-3.97e-4 7.45-5.97e-4 16.5-0.00132 32.9-0.00259 49.4-0.00384 32.7-0.00248 65.5-0.00522 98.2-0.00814 1.56-1.39e-4 3.12-2.78e-4 4.68-4.17e-4 78.1-0.00695 156-0.0179 311-0.0421 0.0229-36.5 0.0405-73.1 0.0511-110 0.00125-4.31 0.00255-8.62 0.00387-12.9 2.62e-4 -0.858 5.25e-4 -1.72 7.95e-4 -2.6 0.00436-13.9 0.0122-27.8 0.0214-41.7 0.00934-14.3 0.0149-28.5 0.0169-42.8 0.00138-8.81 0.00573-17.6 0.0138-26.4 0.00527-6.03 0.00689-12.1 0.00558-18.1-6.44e-4 -3.49 3.76e-4 -6.97 0.0057-10.5 0.00493-3.77 0.0038-7.54 0.00105-11.3 0.00291-1.11 0.00583-2.23 0.00883-3.38-0.00199-1-0.00398-2-0.00603-3.04 3.8e-4 -0.871 7.59e-4 -1.74 0.00115-2.64 0.0929-1.97 0.0929-1.97-1.12-2.96-2.36-0.104-4.69-0.142-7.05-0.139-0.752-0.00284-1.5-0.00568-2.28-0.00861-2.56-0.00841-5.11-0.00962-7.67-0.0109-1.84-0.00456-3.69-0.00956-5.53-0.015-5.11-0.0137-10.2-0.021-15.3-0.0274-5.54-8e-3 -11.1-0.0217-16.6-0.0347-11-0.0248-22-0.0442-33-0.0617-9.14-0.0148-18.3-0.0317-27.4-0.0501-1.32-0.00265-2.63-0.0053-3.99-0.00804-2.01-0.00405-4.02-0.00811-6.03-0.0122-27.9-0.0564-55.8-0.105-83.8-0.151-3.01-0.00491-6.01-0.00982-9.02-0.0147-0.746-0.00122-1.49-0.00244-2.26-0.00369-15-0.0245-30-0.0508-45-0.0774-77.5-0.137-155-0.258-534-0.508-14.2-0.00134-28.4-0.00323-42.6-0.00666-1.05-2.53e-4 -1.05-2.53e-4 -2.12-5.1e-4 -2.82-6.79e-4 -5.65-0.00136-8.47-0.00204-26.3-0.00634-52.6-0.00888-78.9-0.00433-2.53 4.31e-4 -5.06 8.57e-4 -7.59 0.00128-1.24 2.08e-4 -2.48 4.16e-4 -3.76 6.31e-4 -8.52 0.00119-17-2.49e-5 -25.6-0.00239-10.2-0.0028-20.4-0.00205-30.6 0.00318-5.12 0.00254-10.2 0.00369-15.3 2.85e-4 -19.7-0.0118-39.4 0.0742-59 0.46z"/>
<path transform="translate(994 753)" d="m0 0c1.2-0.00999 1.2-0.00999 2.43-0.0202 1.71-0.0101 3.42-0.0148 5.13-0.0145 2.56-0.0043 5.12-0.0404 7.68-0.0786 15.1-0.103 32.4 1.37 43.8 12.4 10.3 12.9 11.9 25 11 41-1.39 10.3-7.98 18-15.8 24.5-6.63 4.44-15 6.63-22.9 6.63-0.897 0.00315-1.79 0.0063-2.72 0.00955-0.955-0.00202-1.91-0.00405-2.9-0.00613-1.48 0.00144-1.48 0.00144-3 0.0029-2.08 6.79e-4 -4.17-0.00116-6.25-0.00534-3.2-0.00537-6.41-3.38e-5 -9.61 0.00635-2.02-6.6e-4 -4.05-0.00194-6.07-0.00391-0.963 0.00202-1.93 0.00405-2.92 0.00613-1.33-0.00473-1.33-0.00473-2.68-0.00955-1.17-0.00119-1.17-0.00119-2.37-0.00241-1.79-0.127-1.79-0.127-2.79-1.13-0.386-3.21-0.448-6.44-0.582-9.67-0.0428-1.02-0.0855-2.04-0.13-3.08-0.446-12.2-0.274-24.4-0.0464-36.7 0.0477-2.64 0.0908-5.28 0.125-7.93 0.0512-3.86 0.116-7.73 0.184-11.6 0.0147-1.19 0.0294-2.37 0.0445-3.59 0.0231-1.09 0.0462-2.17 0.07-3.29 0.0163-0.957 0.0327-1.91 0.0495-2.9 0.71-5.7 5.7-4.61 10.2-4.62z"/>
<path transform="translate(631 768)" d="m0 0c7.72 6.35 12.2 14.8 13.2 24.7 0.225 8.93-0.308 18.2-6.04 25.4-6.18 6.37-13.3 9.68-22.1 10.5-12.7 0.124-20.7-1.93-30-10.9-6.24-7.04-7.4-15.2-7.14-24.4 1.39-10.1 6.24-18.5 14.2-24.8 12.1-8.26 25.5-7.15 38-0.523z"/>
<path transform="translate(1124 753)" d="m0 0c1.29 0.00616 1.29 0.00616 2.61 0.0125 1.4 0.0029 1.4 0.0029 2.84 0.00586 0.98 0.0122 1.96 0.0245 2.97 0.0371 0.984 6.45e-4 1.97 0.00129 2.98 0.00195 7.31 0.0454 7.31 0.0454 8.46 1.19 0.123 1.84 0.178 3.69 0.205 5.53 0.0199 1.18 0.0399 2.36 0.0604 3.58 0.0167 1.29 0.0334 2.57 0.0506 3.9 0.0208 1.31 0.0416 2.62 0.063 3.96 0.0553 3.48 0.105 6.97 0.153 10.5 0.0502 3.55 0.106 7.1 0.161 10.7 0.108 6.97 0.209 13.9 0.307 20.9 0.964 0.0553 1.93 0.111 2.92 0.168 3.57 0.206 7.13 0.418 10.7 0.632 1.55 0.0918 3.09 0.182 4.64 0.271 2.22 0.127 4.43 0.26 6.65 0.395 1.04 0.0579 1.04 0.0579 2.11 0.117 4.88 0.304 4.88 0.304 5.99 1.42 0.099 1.55 0.131 3.1 0.133 4.66 0.00193 1.41 0.00193 1.41 0.00391 2.85-0.00387 0.989-0.00773 1.98-0.0117 3 0.0058 1.48 0.0058 1.48 0.0117 3-0.00129 0.94-0.00258 1.88-0.00391 2.85-0.00113 0.868-0.00226 1.74-0.00342 2.63-0.129 2.03-0.129 2.03-1.13 3.03-1.7 0.104-3.41 0.139-5.11 0.145-1.09 0.00638-2.18 0.0128-3.31 0.0193-1.78 0.00167-1.78 0.00167-3.6 0.00337-1.21 0.00333-2.42 0.00666-3.67 0.0101-2.57 0.00507-5.14 0.00741-7.71 0.00725-3.94 0.00218-7.88 0.0203-11.8 0.0393-2.49 0.00293-4.98 0.00492-7.48 0.00586-1.18 0.00719-2.37 0.0144-3.59 0.0218-1.65-0.00461-1.65-0.00461-3.33-0.00932-1.45 0.00214-1.45 0.00214-2.93 0.00432-2.44-0.247-2.44-0.247-5.44-2.25-0.267-2.62-0.34-5.01-0.281-7.63 0.0061-0.787 0.0122-1.57 0.0185-2.39 0.0242-2.61 0.0704-5.22 0.117-7.83 0.023-1.81 0.0449-3.62 0.0658-5.43 0.0471-3.79 0.105-7.59 0.17-11.4 0.0832-4.87 0.144-9.74 0.198-14.6 0.0431-3.74 0.096-7.47 0.152-11.2 0.0261-1.8 0.0496-3.59 0.0704-5.39 0.0309-2.51 0.0746-5.01 0.122-7.52 0.00687-0.747 0.0137-1.49 0.0208-2.26 0.162-7.12 0.162-7.12 4.48-7.61z"/>
<path transform="translate(439,754)" d="m0 0c1.84 2.68 1.84 2.68 3.38 6.31 0.287 0.662 0.574 1.32 0.869 2.01 0.948 2.22 1.86 4.45 2.76 6.68 0.317 0.78 0.635 1.56 0.961 2.36 1.69 4.15 3.34 8.32 4.99 12.5 2.03 5.12 4.15 10.2 6.3 15.3 2.3 5.43 4.59 10.8 6.74 16.3 0.841 2.12 1.7 4.22 2.58 6.33 0.277 0.674 0.554 1.35 0.839 2.04 0.548 1.33 1.1 2.67 1.66 3.99 1.37 3.35 1.93 5.49 1.93 9.17-3.12 0.49-5.89 0.659-9 0-4.82-4.39-6.74-12.3-9-18h-39c-3.35 6.69-3.35 6.69-6.25 13.5-0.577 1.49-1.15 2.97-1.75 4.5h-10c-0.33-0.66-0.66-1.32-1-2 0.756-2.26 1.58-4.4 2.5-6.6 0.271-0.661 0.542-1.32 0.821-2 0.886-2.16 1.78-4.31 2.68-6.46 0.613-1.49 1.22-2.97 1.84-4.46 1.47-3.56 2.94-7.12 4.42-10.7 1.19-2.88 2.37-5.77 3.56-8.65 0.762-1.86 1.53-3.71 2.3-5.57 1.37-3.31 2.72-6.63 4.06-9.95 1.08-2.67 2.17-5.33 3.25-7.99 0.541-1.33 1.08-2.66 1.61-3.99 0.753-1.87 1.52-3.74 2.28-5.61 0.442-1.09 0.885-2.18 1.34-3.31 2.83-5.8 6-7.7 12.3-5.73z" fill="#FDFDFD"/>
<path transform="translate(634 757)" d="m0 0c10 6.19 16.8 15.5 19.8 26.9 2.25 12.1 1.65 26.2-5.31 36.8-7.19 9.8-16.3 15.9-28.4 17.8-14.5 1.4-26.6-1.16-38.6-9.75-8.72-7.55-13.1-18.7-14-30-0.27-12.8 4.01-24 12-34 14.3-14.6 36.8-17 54.5-7.68zm-47.2 16.6c-6.95 8.65-8.85 17.9-7.84 28.8 1.4 8.44 5.54 14.3 12.1 19.7 8.86 6.18 18 6.73 28.4 5.7 6.82-1.53 12.1-4.07 17-9 0.722-0.701 1.44-1.4 2.19-2.12 5.65-8.96 6.42-20.8 4.12-30.9-2.8-8.46-7.16-15.4-15-19.9-14.6-6.6-30-4.23-41 7.85z" fill="#FDFDFD"/>
<path transform="translate(692,753)" d="m0 0c5.6 4.59 9.45 11.4 13.5 17.3 2.77 4.08 5.61 8.1 8.45 12.1 0.758 1.07 0.758 1.07 1.53 2.17 3.72 5.27 7.47 10.5 11.2 15.8 1.85 2.57 3.61 5.15 5.27 7.85 2.13 2.94 3.91 4.05 7.03 5.79-0.00666-0.72-0.0133-1.44-0.0202-2.18-0.0601-6.78-0.106-13.6-0.135-20.3-0.0157-3.49-0.0369-6.97-0.0709-10.5-0.0388-4.01-0.0534-8.02-0.0667-12-0.0155-1.25-0.031-2.51-0.0469-3.8-2.27e-4 -1.16-4.53e-4 -2.32-6.87e-4 -3.52-0.00666-1.02-0.0133-2.05-0.0202-3.1 0.361-2.56 0.361-2.56 1.66-4.4 2.78-1.9 5.45-1.4 8.71-1.16 1.75 1.75 1.12 4.05 1.12 6.39-0.00539 1.16-0.00539 1.16-0.0109 2.34 1.46e-4 0.81 2.92e-4 1.62 4.43e-4 2.45-6.99e-4 2.69-0.00849 5.38-0.0163 8.07-0.00186 1.86-0.00329 3.72-0.00429 5.58-0.00383 4.9-0.0137 9.81-0.0247 14.7-0.0102 5-0.0148 10-0.0198 15-0.0107 9.82-0.0278 19.6-0.0488 29.5-1.45 0.0359-2.9 0.0616-4.35 0.083-1.21 0.0231-1.21 0.0231-2.45 0.0467-4.11-0.242-5.66-2.71-8.24-5.61-2.79-3.59-5.28-7.33-7.74-11.2-2.92-4.51-6.15-8.8-9.36-13.1-2.73-3.68-5.33-7.42-7.86-11.3-6.71-11.4-6.71-11.4-16-20 0.00524 0.853 0.0105 1.71 0.0159 2.58 0.103 19.5-0.142 38.9-1.02 58.4-1.48 0.0269-2.96 0.0463-4.44 0.0625-1.24 0.0174-1.24 0.0174-2.5 0.0352-2.07-0.0977-2.07-0.0977-3.07-1.1-0.111-2.48-0.157-4.93-0.161-7.41-0.00496-0.776-0.00993-1.55-0.015-2.35-0.0147-2.58-0.0214-5.15-0.0269-7.73-0.00575-1.79-0.0115-3.57-0.0173-5.36-0.0105-3.75-0.0164-7.5-0.0198-11.2-0.00549-4.81-0.0295-9.62-0.058-14.4-0.0186-3.69-0.0238-7.38-0.0254-11.1-0.00303-1.77-0.0111-3.55-0.0242-5.32-0.017-2.48-0.0152-4.96-0.00869-7.43-0.00921-0.736-0.0184-1.47-0.0279-2.23 0.0408-4.95 0.0408-4.95 1.73-7.38 2.85-1.84 4.33-1.77 7.65-1.06z" fill="#FCFCFC"/>
<path transform="translate(364 756)" d="m0 0c5.37 4.13 9.24 9.67 10.6 16.4 0.245 2.13 0.371 4.28 0.473 6.42-3.05 0.288-5.96 0.42-9 0-1.69-2-1.69-2-3-5-2.73-4.63-5.2-8.13-10.4-10-8.15-2.09-14.3-1.32-21.6 3-3.37 2.86-4.25 5.63-5 10 2.94 6.55 8.64 8.44 15 11 2.83 0.909 5.69 1.71 8.56 2.5 9.9 2.75 18.4 5.87 24.4 14.7 3.07 5.49 2.41 11.7 2.02 17.8-1.75 5.9-6.18 9.42-11 13-8.87 4.65-21.3 4.15-30.8 1.88-7.82-2.48-14.2-6.44-18.3-13.7-1.44-3.6-1.99-7.29-1.87-11.2 1-1 1-1 2.85-1.1 2.05 0.0326 4.1 0.0651 6.15 0.0977 0.257 0.58 0.513 1.16 0.777 1.76 3.16 6.44 6.78 10.1 13.2 13.2 2.96 0.993 2.96 0.993 6 1 0.7 0.0374 1.4 0.0748 2.12 0.113 6.34 0.203 11.5-0.44 16.8-4.18 2.46-3.5 2.59-5.49 2.53-9.66-0.613-2.99-1.63-4.85-3.47-7.28-6.26-3.79-13.7-5.53-20.7-7.5-10-2.82-17.5-6.33-24.1-14.8-2.36-5.19-3.06-9.28-1.25-14.8 3.85-8.43 8.48-13.3 17-16.8 10.1-2.93 23-2.6 31.9 3.09z" fill="#FDFDFD"/>
<path transform="translate(1084 753)" d="m0 0c0.927-0.00258 1.85-0.00516 2.81-0.00781 1.46 0.0116 1.46 0.0116 2.94 0.0234 1.45-0.0116 1.45-0.0116 2.93-0.0234 1.39 0.00387 1.39 0.00387 2.81 0.00781 0.851 0.00226 1.7 0.00451 2.58 0.00684 2.24 0.259 2.24 0.259 5.24 2.26-0.33 0.33-0.66 0.66-1 1-0.0897 2.38-0.115 4.74-0.0977 7.12 0.00219 1.12 0.00219 1.12 0.00443 2.26 0.00382 1.62 0.00994 3.25 0.0181 4.87 0.0127 2.57 0.0193 5.14 0.0241 7.7 0.0134 6.38 0.0376 12.8 0.0614 19.1 0.0197 5.38 0.0354 10.8 0.0456 16.2 0.00649 2.53 0.019 5.06 0.0317 7.59 0.00363 1.55 0.00698 3.11 0.01 4.66 0.00517 0.704 0.0103 1.41 0.0157 2.13 3.54e-4 3.27-0.103 6.24-1.11 9.37-3.62 0.225-7.25 0.427-10.9 0.625-1.03 0.0645-2.07 0.129-3.13 0.195-1.48 0.0773-1.48 0.0773-2.99 0.156-0.911 0.0524-1.82 0.105-2.76 0.159-2.25-0.135-2.25-0.135-4.25-2.14-0.198-2.58-0.273-5.05-0.259-7.63-0.0035-0.787-0.00701-1.57-0.0106-2.39-0.00882-2.61-0.00297-5.22 0.00378-7.83-0.00135-1.81-0.00329-3.62-0.0058-5.43-0.00295-3.79 0.00135-7.59 0.0107-11.4 0.0114-4.87 0.00484-9.74-0.00714-14.6-0.00722-3.74-0.00493-7.47 2.56e-4 -11.2 0.00134-1.8-3.13e-4 -3.59-0.00496-5.39-0.00506-2.51 0.00264-5.01 0.0138-7.52-0.00405-0.747-0.0081-1.49-0.0123-2.26 0.0488-5.9 1-7.62 6.95-7.63z"/>
<path transform="translate(503 753)" d="m0 0c3.44 0.188 3.44 0.188 4.44 1.19 0.124 2.24 0.178 4.48 0.205 6.72 0.0099 0.702 0.0198 1.4 0.03 2.13 0.0317 2.33 0.0564 4.66 0.0811 7 0.0206 1.61 0.0416 3.23 0.063 4.84 0.0553 4.25 0.105 8.51 0.153 12.8 0.0502 4.34 0.106 8.67 0.161 13 0.108 8.51 0.209 17 0.307 25.5 1.76 0.0376 1.76 0.0376 3.56 0.0759 4.35 0.0939 8.7 0.194 13 0.296 1.88 0.0434 3.77 0.0851 5.65 0.125 2.7 0.0575 5.41 0.121 8.11 0.186 0.848 0.0167 1.7 0.0334 2.57 0.0506 5.95 0.152 5.95 0.152 7.06 1.27 0.0718 1.52 0.0839 3.04 0.0625 4.56-0.00902 0.826-0.018 1.65-0.0273 2.5-0.0116 0.638-0.0232 1.28-0.0352 1.93-7.1 0.0253-14.2 0.0428-21.3 0.0549-2.42 0.00504-4.84 0.0119-7.25 0.0205-3.47 0.0121-6.94 0.0178-10.4 0.0222-1.09 0.00516-2.18 0.0103-3.3 0.0156-1.5 1.13e-4 -1.5 1.13e-4 -3.03 2.29e-4 -1.33 0.00333-1.33 0.00333-2.68 0.00673-2.02-0.12-2.02-0.12-3.02-1.12-0.106-2.51-0.147-5-0.145-7.52-0.00336-0.787-0.00672-1.57-0.0102-2.38-0.00954-2.61-0.0115-5.23-0.0125-7.84-0.00321-1.81-0.00657-3.62-0.0101-5.43-6e-3 -3.8-0.00784-7.6-0.00725-11.4 1.02e-4 -4.88-0.0136-9.75-0.0308-14.6-0.0111-3.74-0.0131-7.48-0.0126-11.2-0.00118-1.8-0.00563-3.6-0.0133-5.4-0.00975-2.51-0.00694-5.02-8.95e-4 -7.54-0.00562-0.749-0.0112-1.5-0.017-2.27 0.0321-5.23 0.0938-7.26 5.82-7.57z" fill="#FDFDFD"/>
<path transform="translate(1018 775)" d="m0 0c1.94 0.128 1.94 0.128 3.93 0.258 6.93 1.14 11.3 4.12 15.4 9.68 1.72 3.71 2.03 7.1 2.05 11.1 0.00693 0.677 0.0139 1.35 0.021 2.05-0.179 4.98-1.62 7.92-4.71 11.8-7.41 6.06-15.8 6.67-25 6-0.66-0.33-1.32-0.66-2-1-0.0741-5.21-0.129-10.4-0.165-15.6-0.0151-1.77-0.0356-3.55-0.0615-5.32-0.0364-2.55-0.0534-5.1-0.0667-7.65-0.0155-0.794-0.031-1.59-0.0469-2.41-0.00167-5.46-0.00167-5.46 1.65-7.99 2.92-1.7 5.71-1.12 9-0.862z" fill="#FDFDFD"/>
<path transform="translate(434,772)" d="m0 0c3.77 2.51 4.2 4.36 5.81 8.56 0.253 0.653 0.506 1.31 0.766 1.98 2 5.23 3.91 10.5 5.8 15.8 0.263 0.735 0.525 1.47 0.796 2.23 1.83 5.22 1.83 5.22 1.83 7.46h-29c-0.33-0.66-0.66-1.32-1-2 0.814-2.43 1.69-4.76 2.68-7.12 0.285-0.703 0.57-1.41 0.864-2.13 0.606-1.49 1.22-2.97 1.83-4.46 0.938-2.27 1.86-4.55 2.79-6.83 0.59-1.44 1.18-2.89 1.77-4.33 0.277-0.683 0.554-1.37 0.84-2.07 1.17-2.81 2.06-4.88 4.23-7.05z"/>
</svg>
